<svg width="10" height="10" viewBox="0 0 10 10" fill="none" xmlns="http://www.w3.org/2000/svg">
<path d="M9.72792 1.96954L6.69746 5L9.72792 8.03046C10.0613 8.36381 10.0613 8.90929 9.72792 9.24264C9.39457 9.57599 8.84909 9.57599 8.51574 9.24264L5.48528 6.21218L2.45482 9.24264C2.12147 9.57599 1.57599 9.57599 1.24264 9.24264C0.90929 8.90929 0.90929 8.36381 1.24264 8.03046L4.2731 5L1.24264 1.96954C0.90929 1.63619 0.90929 1.09071 1.24264 0.757359C1.57599 0.424009 2.12147 0.424009 2.45482 0.757359L5.48528 3.78782L8.51574 0.757359C8.84909 0.424009 9.39457 0.424009 9.72792 0.757359C10.0613 1.09071 10.0613 1.63619 9.72792 1.96954Z" fill="#778192"/>
</svg>
